<?xml version="1.0" encoding="UTF-8" standalone="no"?>
<svg width="34px" height="26px" viewBox="0 0 34 26" version="1.1" xmlns="http://www.w3.org/2000/svg" xmlns:xlink="http://www.w3.org/1999/xlink">
    <!-- Generator: Sketch 3.6.1 (26313) - http://www.bohemiancoding.com/sketch -->
    <title>Fill 1</title>
    <desc>Created with Sketch.</desc>
    <defs></defs>
    <g id="shop" stroke="none" stroke-width="1" fill="none" fill-rule="evenodd">
        <g id="desktop" transform="translate(-703.000000, -1793.000000)" fill="#3F3F3F">
            <g id="загрузить-больше" transform="translate(629.000000, 1793.000000)">
                <path d="M100.139383,19.2319607 L100.122791,19.2204738 C100.093436,19.266847 100.06876,19.3144966 100.037703,19.3595935 C96.6490531,24.3223801 89.8726051,25.5936023 84.901735,22.1994221 C81.5050022,19.8799096 79.8423729,15.9841327 80.2048499,12.1645101 L83.2182591,14.7452442 C83.5943503,15.0664533 84.1589124,15.0234836 84.480547,14.646967 C84.8043087,14.2704504 84.7579355,13.70759 84.3818443,13.3863809 L79.5815767,9.27575554 C79.4007636,9.12174535 79.1676211,9.04516571 78.9302242,9.0621834 C78.6924019,9.08090287 78.4728735,9.19236881 78.3197142,9.37360731 L74.2146196,14.1653661 C74.1929221,14.1908926 74.1737772,14.2159937 74.1550577,14.2436475 C73.9010685,14.6150588 73.9627577,15.1260152 74.3133223,15.4263776 C74.6894135,15.7475867 75.2539757,15.704617 75.5760356,15.3302276 L78.429053,11.9977366 C78.0125448,16.444887 79.9487335,20.9826566 83.8947127,23.6769839 C89.6726471,27.6225375 97.5782195,26.1385941 101.517392,20.3700194 C101.522922,20.3615105 101.528028,20.3512999 101.534409,20.3415147 C101.537387,20.3376858 101.541642,20.3342822 101.545471,20.3287515 C101.55483,20.3147119 101.561212,20.2993959 101.569296,20.2845055 C101.584186,20.2606807 101.598651,20.236005 101.614392,20.2104785 L101.611414,20.2087767 C101.798184,19.8169442 101.67906,19.3374705 101.309776,19.0856085 C100.933684,18.8286412 100.434215,18.9001156 100.139383,19.2319607 M106.055587,10.5554866 L103.203846,13.8862758 C103.619077,9.44125266 101.682463,4.90305761 97.7381859,2.20958119 C91.9589751,-1.73682336 84.0542536,-0.253730836 80.1142307,5.51612024 C80.1086999,5.52420364 80.1035946,5.53483971 80.0980639,5.54292311 C80.0942349,5.54845387 80.0899805,5.55143196 80.0874278,5.55568639 C80.0767917,5.57100232 80.0704101,5.58631825 80.0623267,5.60120873 C80.0474362,5.62545896 80.0342475,5.65056006 80.0185061,5.67353396 L80.0214842,5.67566117 C79.8342895,6.06706826 79.9521371,6.54654195 80.3226975,6.79925479 C80.6987887,7.05622206 81.1982581,6.98474772 81.4922389,6.6541789 L81.5088312,6.66524041 C81.539463,6.6201435 81.5628624,6.57164306 81.5939197,6.52612071 C84.9825691,1.56333405 91.7585917,0.292111881 96.7298872,3.68671752 C100.12662,6.00622999 101.7901,9.90285777 101.426347,13.7216296 L98.4133631,11.1408954 C98.037272,10.8196863 97.4722843,10.862656 97.1523516,11.2374709 C96.8285899,11.6139875 96.8736868,12.1785497 97.2497779,12.4997587 L102.050896,16.6091078 C102.229582,16.7631179 102.464852,16.8392722 102.702249,16.8226799 C102.937944,16.8039604 103.157472,16.6924945 103.312333,16.5121069 L107.417003,11.7203481 C107.4387,11.695247 107.458696,11.6684441 107.476565,11.6424921 C107.730554,11.2706554 107.668865,10.7596989 107.319151,10.4584857 C106.94306,10.1372766 106.378497,10.1802463 106.055587,10.5554866" id="Fill-1"></path>
            </g>
        </g>
    </g>
</svg>