<?xml version="1.0" encoding="UTF-8" standalone="no"?>
<svg width="16px" height="16px" viewBox="0 0 16 16" version="1.1" xmlns="http://www.w3.org/2000/svg" xmlns:xlink="http://www.w3.org/1999/xlink">
    <!-- Generator: Sketch 3.8.3 (29802) - http://www.bohemiancoding.com/sketch -->
    <title>common-search-lookup-glyph copy 4</title>
    <desc>Created with Sketch.</desc>
    <defs></defs>
    <g id="Главная" stroke="none" stroke-width="1" fill="none" fill-rule="evenodd">
        <g id="Главная-#menu" transform="translate(-1306.000000, -539.000000)" fill="#EC8919">
            <g id="Group-21" transform="translate(-199.000000, 458.000000)">
                <path d="M1516.32487,90.7712401 C1517.02719,89.764137 1517.43906,88.5394665 1517.43906,87.2186145 C1517.43906,83.7841681 1514.65448,81 1511.21953,81 C1507.78458,81 1505,83.7841681 1505,87.2186145 C1505,90.6530608 1507.78458,93.4372289 1511.21953,93.4372289 C1512.54037,93.4372289 1513.76505,93.0255515 1514.77221,92.3235255 L1514.77263,92.3231546 L1519.38499,96.9348359 C1519.47051,97.0203426 1519.60653,97.0229735 1519.69434,96.9351776 L1520.93752,95.6921797 C1521.02285,95.6068618 1521.01889,95.4645682 1520.93718,95.3828746 L1516.32487,90.7712401 L1516.32487,90.7712401 Z M1511.21953,91.9740255 C1513.84626,91.9740255 1515.97564,89.8449556 1515.97564,87.2186145 C1515.97564,84.5922734 1513.84626,82.4632034 1511.21953,82.4632034 C1508.5928,82.4632034 1506.46342,84.5922734 1506.46342,87.2186145 C1506.46342,89.8449556 1508.5928,91.9740255 1511.21953,91.9740255 L1511.21953,91.9740255 Z" id="common-search-lookup-glyph-copy-4"></path>
            </g>
        </g>
    </g>
</svg>