<?xml version="1.0" encoding="UTF-8" standalone="no"?>
<svg width="21px" height="21px" viewBox="0 0 21 21" version="1.1" xmlns="http://www.w3.org/2000/svg" xmlns:xlink="http://www.w3.org/1999/xlink">
    <!-- Generator: Sketch 3.6.1 (26313) - http://www.bohemiancoding.com/sketch -->
    <title>search75</title>
    <desc>Created with Sketch.</desc>
    <defs></defs>
    <g id="main-page" stroke="none" stroke-width="1" fill="none" fill-rule="evenodd">
        <g id="desktop" transform="translate(-1390.000000, -32.000000)" fill="#D9D9D9">
            <g id="header">
                <g id="navbar">
                    <path d="M1398.13389,32 C1393.63938,32 1390,35.6393786 1390,40.1338856 C1390,44.6224127 1393.63938,48.2665753 1398.13389,48.2665753 C1399.8573,48.2665753 1401.45992,47.7247946 1402.77789,46.8098671 L1408.93003,52.9572236 C1408.98146,53.0134349 1409.07475,53.0134349 1409.12617,52.9620076 L1410.28508,51.8030993 C1410.33651,51.748084 1410.33172,51.6583853 1410.2803,51.606958 L1404.21188,45.5337524 C1405.49158,44.0997678 1406.26777,42.2077215 1406.26777,40.1338856 C1406.26777,35.6393786 1402.62361,32 1398.13389,32 L1398.13389,32 Z M1398.13389,47.3097883 C1394.17159,47.3097883 1390.95798,44.0949839 1390.95798,40.1338856 C1390.95798,36.1715914 1394.17159,32.957983 1398.13389,32.957983 C1402.09498,32.957983 1405.30979,36.1715914 1405.30979,40.1338856 C1405.30979,44.0949839 1402.09498,47.3097883 1398.13389,47.3097883 L1398.13389,47.3097883 Z" id="search75"></path>
                </g>
            </g>
        </g>
    </g>
</svg>