<?xml version="1.0" encoding="UTF-8" standalone="no"?>
<svg width="164px" height="113px" viewBox="0 0 164 113" version="1.1" xmlns="http://www.w3.org/2000/svg" xmlns:xlink="http://www.w3.org/1999/xlink">
    <!-- Generator: Sketch 3.8.3 (29802) - http://www.bohemiancoding.com/sketch -->
    <title>g5608</title>
    <desc>Created with Sketch.</desc>
    <defs></defs>
    <g id="Symbols" stroke="none" stroke-width="1" fill="none" fill-rule="evenodd">
        <g id="footer" transform="translate(-1450.000000, -484.000000)">
            <g id="Group-8" transform="translate(1449.000000, 483.000000)">
                <g id="g5608">
                    <path d="M153.226048,113.071534 C153.226048,113.071534 153.677252,113.021683 153.907927,112.77347 C154.120243,112.545332 154.113453,112.117116 154.113453,112.117116 C154.113453,112.117116 154.083969,110.112081 155.014737,109.816927 C155.932214,109.526027 157.110142,111.754647 158.358672,112.611527 C159.302867,113.259971 160.020419,113.118027 160.020419,113.118027 L163.359052,113.071534 C163.359052,113.071534 165.105127,112.963697 164.277206,111.590465 C164.209443,111.478374 163.794658,110.574851 161.794924,108.718626 C159.701007,106.775234 159.981682,107.089792 162.503521,103.728765 C164.039138,101.681864 164.653327,100.432589 164.461236,99.8972075 C164.278397,99.3873481 163.148901,99.5218275 163.148901,99.5218275 L159.389657,99.5453362 C159.389657,99.5453362 159.111147,99.507275 158.90435,99.6308594 C158.702484,99.7519062 158.572782,100.034224 158.572782,100.034224 C158.572782,100.034224 157.977322,101.618132 157.1841,102.965169 C155.510487,105.807307 154.841077,105.957757 154.56749,105.780889 C153.930984,105.369539 154.090164,104.128771 154.090164,103.246891 C154.090164,100.492366 154.507933,99.343765 153.276346,99.0465956 C152.867682,98.9479381 152.566783,98.8824887 151.521687,98.8719662 C150.180551,98.8583094 149.04523,98.8762225 148.402609,99.1909262 C147.974986,99.4008556 147.644906,99.8670575 147.846184,99.8940731 C148.094615,99.9272081 148.657162,100.045642 148.955375,100.451694 C149.340611,100.975882 149.327102,102.152693 149.327102,102.152693 C149.327102,102.152693 149.548598,105.395211 148.810227,105.797755 C148.303431,106.074103 147.608414,105.510138 146.115926,102.931437 C145.351513,101.610744 144.774187,100.150346 144.774187,100.150346 C144.774187,100.150346 144.663141,99.8778044 144.464406,99.7316081 C144.223506,99.554515 143.886789,99.4985437 143.886789,99.4985437 L140.314633,99.5216787 C140.314633,99.5216787 139.778359,99.5369025 139.581788,99.7701156 C139.406334,99.9776569 139.567758,100.40647 139.567758,100.40647 C139.567758,100.40647 142.364149,106.949341 145.530692,110.246412 C148.434919,113.270194 151.731847,113.071534 151.731847,113.071534 L153.226048,113.071534 Z" id="path9" fill="#EB8A1C"></path>
                    <text id="" font-family="Helvetica" font-size="12" font-weight="normal" fill="#000000">
                        <tspan x="0" y="11">EB8A1C</tspan>
                    </text>
                </g>
            </g>
        </g>
    </g>
</svg>