<?xml version="1.0" encoding="UTF-8" standalone="no"?>
<svg width="18px" height="15px" viewBox="0 0 18 15" version="1.1" xmlns="http://www.w3.org/2000/svg" xmlns:xlink="http://www.w3.org/1999/xlink">
    <!-- Generator: Sketch 3.8.3 (29802) - http://www.bohemiancoding.com/sketch -->
    <title>ic_photo_size_select_actual_black_24px</title>
    <desc>Created with Sketch.</desc>
    <defs></defs>
    <g id="Каталог" stroke="none" stroke-width="1" fill="none" fill-rule="evenodd">
        <g transform="translate(-1349.000000, -239.000000)" id="Group-4">
            <g transform="translate(97.000000, 167.000000)">
                <g id="Group-12-Copy" transform="translate(1251.000000, 69.000000)">
                    <g id="ic_photo_size_select_actual_black_24px">
                        <g id="Group">
                            <polygon id="Shape" points="20 20 0 20 0 0 20 0"></polygon>
                            <path d="M2.63636364,3 C1.81818182,3 1,3.83333333 1,4.66666667 L1,16.3333333 C1,17.25 1.73636364,18 2.63636364,18 L17.3636364,18 C18.1818182,18 19,17.1666667 19,16.3333333 L19,4.66666667 C19,3.83333333 18.1818182,3 17.3636364,3 L2.63636364,3 Z M4.27272727,14.6666667 L7.13636364,10.9166667 L9.18181818,13.425 L12.0454545,9.66666667 L15.7272727,14.6666667 L4.27272727,14.6666667 L4.27272727,14.6666667 Z" id="Shape" fill="#BFBFBF"></path>
                        </g>
                    </g>
                </g>
            </g>
        </g>
    </g>
</svg>