<?xml version="1.0" encoding="UTF-8" standalone="no"?>
<svg width="19px" height="15px" viewBox="0 0 19 15" version="1.1" xmlns="http://www.w3.org/2000/svg" xmlns:xlink="http://www.w3.org/1999/xlink">
    <!-- Generator: Sketch 3.8.3 (29802) - http://www.bohemiancoding.com/sketch -->
    <title>ic_photo_size_select_large_black_24px</title>
    <desc>Created with Sketch.</desc>
    <defs></defs>
    <g id="Каталог" stroke="none" stroke-width="1" fill="none" fill-rule="evenodd">
        <g transform="translate(-1397.000000, -239.000000)" id="Group-4">
            <g transform="translate(97.000000, 167.000000)">
                <g id="Group-12-Copy" transform="translate(1251.000000, 69.000000)">
                    <g id="ic_photo_size_select_large_black_24px" transform="translate(49.000000, 0.000000)">
                        <g id="Group">
                            <polygon id="Shape" points="20 20 0 20 0 0 20 0"></polygon>
                            <path d="M16.6666667,13 L18.3333333,13 L18.3333333,14.6666667 L16.6666667,14.6666667 L16.6666667,13 L16.6666667,13 Z M16.6666667,9.66666667 L18.3333333,9.66666667 L18.3333333,11.3333333 L16.6666667,11.3333333 L16.6666667,9.66666667 L16.6666667,9.66666667 Z M18.3333333,16.3333333 L16.6666667,16.3333333 L16.6666667,18 C17.5,18 18.3333333,17.1666667 18.3333333,16.3333333 L18.3333333,16.3333333 Z M10,3 L11.6666667,3 L11.6666667,4.66666667 L10,4.66666667 L10,3 L10,3 Z M16.6666667,6.33333333 L18.3333333,6.33333333 L18.3333333,8 L16.6666667,8 L16.6666667,6.33333333 L16.6666667,6.33333333 Z M16.6666667,3 L16.6666667,4.66666667 L18.3333333,4.66666667 C18.3333333,3.83333333 17.5,3 16.6666667,3 L16.6666667,3 Z M0,6.33333333 L1.66666667,6.33333333 L1.66666667,8 L0,8 L0,6.33333333 L0,6.33333333 Z M13.3333333,3 L15,3 L15,4.66666667 L13.3333333,4.66666667 L13.3333333,3 L13.3333333,3 Z M13.3333333,16.3333333 L15,16.3333333 L15,18 L13.3333333,18 L13.3333333,16.3333333 L13.3333333,16.3333333 Z M1.66666667,3 C0.833333333,3 0,3.83333333 0,4.66666667 L1.66666667,4.66666667 L1.66666667,3 L1.66666667,3 Z M6.66666667,3 L8.33333333,3 L8.33333333,4.66666667 L6.66666667,4.66666667 L6.66666667,3 L6.66666667,3 Z M3.33333333,3 L5,3 L5,4.66666667 L3.33333333,4.66666667 L3.33333333,3 L3.33333333,3 Z M0,9.66666667 L0,16.3333333 C0,17.25 0.75,18 1.66666667,18 L11.6666667,18 L11.6666667,9.66666667 L0,9.66666667 L0,9.66666667 Z M1.66666667,16.3333333 L3.75,13.6583333 L5.24166667,15.45 L7.325,12.7666667 L10,16.3333333 L1.66666667,16.3333333 L1.66666667,16.3333333 Z" id="Shape" fill="#000000"></path>
                        </g>
                    </g>
                </g>
            </g>
        </g>
    </g>
</svg>