<?xml version="1.0" encoding="UTF-8" standalone="no"?>
<svg width="157px" height="32px" viewBox="0 0 157 32" version="1.1" xmlns="http://www.w3.org/2000/svg" xmlns:xlink="http://www.w3.org/1999/xlink">
    <!-- Generator: Sketch 3.8.3 (29802) - http://www.bohemiancoding.com/sketch -->
    <title>Group 5 Copy</title>
    <desc>Created with Sketch.</desc>
    <defs></defs>
    <g id="Главная" stroke="none" stroke-width="1" fill="none" fill-rule="evenodd">
        <g id="Главная-#menu" transform="translate(-641.000000, -16.000000)">
            <g id="Group-5-Copy" transform="translate(641.000000, 16.000000)">
                <g id="Group" transform="translate(43.000000, 8.000000)" fill="#000000">
                    <path d="M16.2840073,15.5555556 C16.1357146,15.5555556 15.1393348,15.4891772 13.9076477,15.4891772 C12.1649022,15.4891772 11.4663334,15.5555556 11.3388752,15.5555556 C11.2285749,15.5555556 11.1256279,15.5365903 11.1256279,15.4891772 C11.1256279,15.3943511 11.2285749,15.3482926 11.4013788,15.3008796 C11.8916025,15.1085179 11.9970006,14.6682536 11.9970006,14.0803313 C11.9970006,13.6563229 11.5276114,12.5306008 11.0398387,11.4048787 L9.82898609,8.63189062 L4.77845596,8.63189062 L3.63133239,11.101435 C3.25140899,11.921004 2.88986898,12.8110153 2.88986898,13.7741783 C2.88986898,14.782045 3.45975408,15.0448489 4.03454142,15.2764957 C4.20489417,15.3239088 4.26862326,15.3686125 4.26862326,15.4417642 C4.26862326,15.5352357 4.16077404,15.5542009 4.01493247,15.5542009 C3.86418867,15.5542009 3.09821407,15.4878226 1.930256,15.4878226 C1.08339448,15.4878226 0.529441645,15.5542009 0.275750857,15.5542009 C0.0649546462,15.5542009 1.77635684e-15,15.5081425 1.77635684e-15,15.4417642 C1.77635684e-15,15.2764957 0.253690788,15.1816695 0.40443459,15.0651688 C1.25129611,14.3133328 2.39841967,12.3653323 2.86535779,11.356111 L8.06908285,0.185588358 C8.13158637,0.0690876368 8.17448095,-5.32907052e-15 8.21492441,-5.32907052e-15 L8.26027011,-5.32907052e-15 C8.32277363,-5.32907052e-15 8.38527716,0.0921168491 8.43062286,0.185588358 L14.6736223,13.0914298 C15.0327111,13.8215913 15.4592058,14.5016304 16.09282,15.0448489 C16.3269018,15.2277279 16.5818182,15.3239088 16.5818182,15.4417642 C16.5805926,15.5081425 16.4776456,15.5555556 16.2840073,15.5555556 L16.2840073,15.5555556 L16.2840073,15.5555556 Z M7.28104818,3.16719402 L5.05298125,8.04396838 L9.55568635,8.04396838 L7.28104818,3.16719402 L7.28104818,3.16719402 L7.28104818,3.16719402 Z" id="Shape"></path>
                    <path d="M28.2083561,15.5555556 L25.3911963,15.5555556 L24.3696835,12.5965682 C23.4293995,9.88774631 23.0687932,8.33072744 20.4030142,8.26167138 L17.2880158,8.1717682 L17.2880158,13.1177461 C17.2880158,14.2226432 17.5673934,14.9705334 18.3341433,15.3288432 C18.5482917,15.4408964 18.6319819,15.4643494 18.6319819,15.5112554 C18.6319819,15.5321026 18.5913676,15.5555556 18.3981417,15.5555556 L13.6437999,15.5555556 C13.5379564,15.5555556 13.4727273,15.5555556 13.4727273,15.5112554 C13.4727273,15.4643494 13.6216466,15.4200493 13.8136418,15.3288432 C14.621006,14.8754184 14.8166934,14.2213402 14.8166934,13.1177461 L14.8166934,3.6375208 C14.8166934,2.95868663 14.7920787,1.8081865 13.9637918,1.48896506 C13.7287208,1.40297071 13.5145724,1.37691182 13.5145724,1.24401147 C13.5145724,1.15541123 13.600724,1.11111111 13.9231775,1.11111111 L21.8971304,1.11111111 C25.8613383,1.11111111 27.5031431,2.4179646 27.5031431,4.42710526 C27.5031431,7.53984004 24.0078465,7.9502676 21.7679029,7.9502676 L21.7679029,7.99326478 C23.9216948,8.26297432 25.9696432,9.05386173 26.7179321,11.4239181 C27.2077659,12.9600898 27.9942076,14.9718364 28.6575755,15.215487 C28.8471092,15.3522962 29.0181818,15.4200493 29.0181818,15.5125584 C29.0157203,15.5307996 28.9098769,15.5555556 28.2083561,15.5555556 L28.2083561,15.5555556 L28.2083561,15.5555556 Z M21.2977609,1.67268026 L17.2880158,1.67268026 L17.2880158,7.60629022 L21.1488416,7.60629022 C23.4712446,7.60629022 24.6441382,6.0740273 24.6441382,4.56000561 C24.6429074,2.89223645 23.558627,1.67268026 21.2977609,1.67268026 L21.2977609,1.67268026 L21.2977609,1.67268026 Z" id="Shape"></path>
                    <path d="M41.3504868,4.52117946 C41.3090998,4.52117946 41.1246321,4.27810208 40.980369,4.10766851 C40.0568482,3.06690615 38.6875306,1.71181959 36.6572038,1.71181959 C35.738413,1.71181959 35.3895799,1.88225316 35.3895799,2.82522576 L35.3895799,13.9830365 C35.3895799,15.1676895 35.655639,16.139999 36.6181818,16.3285935 C36.8026495,16.3788854 36.9256279,16.4515292 36.9256279,16.522776 C36.9256279,16.5716709 36.842854,16.6666667 36.7612625,16.6666667 C36.6181818,16.6666667 35.3659302,16.5982138 34.2,16.5982138 C33.0340698,16.5982138 31.8232052,16.6666667 31.6801245,16.6666667 C31.557146,16.6666667 31.4932918,16.6191688 31.4932918,16.550716 C31.4932918,16.4529262 31.6801245,16.4529262 31.8858769,16.3551365 C32.8259524,15.8689817 33.0127851,15.1676895 33.0127851,12.9199222 L33.0127851,2.82522576 C33.0127851,1.88225316 32.663952,1.71181959 31.7427962,1.71181959 C29.7148344,1.71181959 28.3407868,3.06690615 27.421996,4.10766851 C27.2741854,4.27810208 27.0897177,4.52117946 27.0518782,4.52117946 C26.9892065,4.52117946 26.9454545,4.44713865 26.9454545,4.37449484 C26.9454545,4.27949908 27.0305935,4.05737664 27.0885352,3.81988724 L27.7471794,1.11111111 L40.6528206,1.11111111 L41.3090998,3.81988724 C41.3717715,4.05877364 41.4545455,4.27949908 41.4545455,4.37449484 C41.4545455,4.44853565 41.4131585,4.52117946 41.3504868,4.52117946 L41.3504868,4.52117946 L41.3504868,4.52117946 Z" id="Shape"></path>
                    <path d="M41.3979217,7.61904762 C41.4227567,7.48832866 41.4413829,7.35387488 41.4413829,7.22315593 C41.4413829,6.98910675 41.366878,6.82228447 41.1644729,6.76875195 C41.1309457,6.75630252 41.1110777,6.74260815 41.1110777,6.71521942 C41.1110777,6.68658575 41.1359127,6.66666667 41.1893079,6.66666667 C41.2836808,6.66666667 41.4687014,6.67911609 42.2534867,6.67911609 L43.3834782,6.67911609 C44.6984903,6.67911609 45.6,7.37005913 45.6,8.48552754 C45.6,9.35449735 44.9530488,11.1111111 42.7601203,11.1111111 C42.4111888,11.1111111 42.0175544,11.091192 41.6177113,11.091192 C40.8565192,11.091192 40.5386315,11.1111111 40.5001372,11.1111111 C40.451709,11.1111111 40.4181818,11.1048864 40.4181818,11.071273 C40.4181818,11.0451292 40.4591595,11.0239651 40.5001372,11.0102708 C40.6702568,10.9530034 40.8639697,10.8023654 40.9248154,10.4450669 L41.3979217,7.61904762 L41.3979217,7.61904762 L41.3979217,7.61904762 Z M41.613986,10.1064426 C41.599085,10.2172425 41.5655578,10.3330221 41.5655578,10.443822 C41.5655578,10.9393091 41.8250833,10.9716776 42.4310568,10.9716776 C42.7191425,10.9716776 43.0717992,10.9654528 43.5784328,10.8422035 C44.5780407,10.6006847 44.9269721,8.85652039 44.9269721,8.29256147 C44.9269721,7.01151572 44.0180119,6.83224401 43.0792497,6.83224401 L42.0945428,6.83224401 L41.613986,10.1064426 L41.613986,10.1064426 L41.613986,10.1064426 Z" id="Shape"></path>
                    <path d="M48.522413,10.21283 C47.9840579,10.7799753 47.4216153,11.1111111 46.6243199,11.1111111 C45.4669167,11.1111111 44.5636364,10.3248141 44.5636364,9.35789759 C44.5636364,7.89247118 45.9607099,6.66666667 47.391506,6.66666667 C47.8455549,6.66666667 48.7090909,6.77263012 48.7090909,7.3746952 C48.7090909,8.33197869 47.0458507,8.55233451 46.3641752,8.55233451 C46.0486292,8.55233451 45.7342877,8.54149734 45.4368074,8.44998344 C45.3235962,8.81724314 45.2910781,9.18811524 45.2910781,9.32538607 C45.2910781,10.2068094 45.8161851,10.9642072 46.6712905,10.9642072 C47.4408853,10.9642072 47.9515398,10.5620278 48.40318,10.0779674 L48.522413,10.21283 L48.522413,10.21283 L48.522413,10.21283 Z M47.2807036,6.80995816 C46.4123501,6.80995816 45.7330833,7.48788344 45.525931,8.29103826 C45.7523533,8.35485716 46.0100893,8.40302237 46.2521684,8.40302237 C46.9302308,8.40302237 47.9840579,8.23444414 47.9840579,7.34459195 C47.9840579,6.9315753 47.6335851,6.80995816 47.2807036,6.80995816 L47.2807036,6.80995816 L47.2807036,6.80995816 Z" id="Shape"></path>
                    <path d="M65.8874585,1.8497679 C64.9533157,2.64953658 63.6278265,4.75391132 62.9553891,6.20332599 L57.0367285,19.0886357 C56.8574119,19.485863 56.5993413,20 56.3885231,20 C56.2092065,20 55.896614,19.3184695 55.7160858,18.9451556 L48.9723263,4.38458292 C48.245367,2.81958706 48.0357604,2.0756162 46.8944342,1.50700989 C46.7926599,1.44988356 46.6363636,1.36884388 46.6363636,1.28116159 C46.6363636,1.19746487 46.8423354,1.11111111 47.076174,1.11111111 C47.6468371,1.11111111 48.0091052,1.22403526 49.6181085,1.22403526 C51.0974708,1.22403526 51.4609504,1.11111111 52.4459803,1.11111111 C52.6567985,1.11111111 52.7585729,1.16956596 52.7585729,1.22403526 C52.7585729,1.34094497 52.5271575,1.44988356 52.3163393,1.48309654 C51.7747545,1.62259108 51.5663595,2.21909629 51.5663595,2.44760163 C51.5663595,3.09857614 52.5271575,4.77649615 53.2274616,6.17409856 L57.9224073,15.4737344 L61.8903937,6.54342695 C62.3568593,5.49123959 62.8778468,3.98337006 62.8778468,3.12913209 C62.8778468,2.47682906 62.671875,1.99457651 61.9691476,1.64916147 C61.7607526,1.53623732 61.2942871,1.42464169 61.2942871,1.22403526 C61.2942871,1.13635298 61.4215049,1.11111111 61.6299,1.11111111 C62.4113812,1.11111111 62.6948954,1.22403526 63.9392075,1.22403526 C65.079322,1.22403526 65.3664709,1.11111111 65.7566058,1.11111111 C66.0146764,1.11111111 66.3272689,1.16956596 66.3272689,1.28116159 C66.3284805,1.44988356 66.0437547,1.70894484 65.8874585,1.8497679 L65.8874585,1.8497679 L65.8874585,1.8497679 Z" id="Shape"></path>
                    <path d="M70.1822134,16.6666667 C69.3177866,16.6666667 68.7652174,16.5986658 67.8592885,16.5986658 C66.9581028,16.5986658 66.3818182,16.6666667 65.5387352,16.6666667 C65.4367589,16.6666667 65.2909091,16.6472378 65.2909091,16.5514814 C65.2909091,16.3821731 65.5185771,16.407153 65.7035573,16.308621 C66.4837945,15.8284513 66.6699605,14.9375006 66.6699605,13.757893 L66.6699605,3.32461018 C66.6699605,2.16998245 66.383004,1.59544414 65.8683794,1.44834012 C65.787747,1.42613574 65.6442688,1.37617589 65.6442688,1.30401166 C65.6442688,1.2332352 65.7047431,1.11111111 65.8897233,1.11111111 C66.0130435,1.11111111 67.2047431,1.20964304 67.8604743,1.20964304 C68.5209486,1.20964304 69.5051383,1.11111111 69.6272727,1.11111111 C69.7339921,1.11111111 69.9142292,1.13609104 69.9142292,1.30401166 C69.9142292,1.39838027 69.7102767,1.47470782 69.5881423,1.56768866 C69.3403162,1.75920144 69.0533597,2.09504267 69.0533597,2.89023701 L69.0533597,13.9993656 C69.0533597,15.2983218 69.3818182,15.9450243 70.1205534,16.3294377 C70.3268775,16.4515617 70.4727273,16.4043774 70.4727273,16.5487059 C70.4715415,16.6180946 70.2865613,16.6666667 70.1822134,16.6666667 L70.1822134,16.6666667 L70.1822134,16.6666667 Z" id="Shape"></path>
                    <path d="M85.6486881,1.7208943 C84.8630411,2.37529577 83.7469935,4.11000048 83.183295,5.30387754 L78.2008048,15.9149162 C78.0482152,16.2448211 77.8287889,16.6666667 77.650978,16.6666667 C77.4983884,16.6666667 77.2373468,16.1028538 77.0847572,15.7986383 L71.4023728,3.80713699 C70.7945367,2.51861509 70.6192479,1.90612777 69.6557899,1.43831185 C69.5700371,1.39098942 69.4363636,1.3220339 69.4363636,1.25307837 C69.4363636,1.18006664 69.6141746,1.11111111 69.8083795,1.11111111 C70.2913695,1.11111111 70.5940265,1.20710802 71.9509385,1.20710802 C73.1943542,1.20710802 73.5007944,1.11111111 74.333101,1.11111111 C74.5083899,1.11111111 74.5941427,1.15572939 74.5941427,1.20710802 C74.5941427,1.29769665 74.3948935,1.39098942 74.224649,1.41667874 C73.7643582,1.53295669 73.5890693,2.02510986 73.5890693,2.20899126 C73.5890693,2.74846685 74.3948935,4.13028152 74.9875967,5.28089237 L78.9410532,12.9403641 L82.2828905,5.58510792 C82.6776056,4.71707953 83.1151971,3.47723212 83.1151971,2.77415616 C83.1151971,2.2333285 82.9373862,1.83852431 82.3497273,1.55594186 C82.1744384,1.46535323 81.7809844,1.36800425 81.7809844,1.20710802 C81.7809844,1.13409629 81.8919586,1.11111111 82.0672474,1.11111111 C82.7230042,1.11111111 82.9638687,1.20710802 84.0130795,1.20710802 C84.9714932,1.20710802 85.2123577,1.11111111 85.5427582,1.11111111 C85.7571402,1.11111111 86.0181818,1.15572939 86.0181818,1.25307837 C86.0181818,1.39098942 85.7811005,1.59920807 85.6486881,1.7208943 L85.6486881,1.7208943 L85.6486881,1.7208943 Z" id="Shape"></path>
                    <path d="M98.6797242,15.5555556 L95.8645801,15.5555556 L94.8404437,12.5965682 C93.9000108,9.88774631 93.5393474,8.33072744 90.8731462,8.26167138 L87.7625782,8.1717682 L87.7625782,13.1177461 C87.7625782,14.2226432 88.0395381,14.9705334 88.8064095,15.3288432 C89.01813,15.4408964 89.1042953,15.4643494 89.1042953,15.5112554 C89.1042953,15.5321026 89.0612126,15.5555556 88.8691871,15.5555556 L84.1165543,15.5555556 C84.0082321,15.5555556 83.9454545,15.5555556 83.9454545,15.5112554 C83.9454545,15.4643494 84.0943975,15.4200493 84.2839612,15.3288432 C85.096377,14.8754184 85.2847098,14.2213402 85.2847098,13.1177461 L85.2847098,3.6375208 C85.2847098,2.95868663 85.2650149,1.8081865 84.434135,1.48896506 C84.2002577,1.40297071 83.9873063,1.37691182 83.9873063,1.24401147 C83.9873063,1.15541123 84.0734716,1.11111111 84.3935142,1.11111111 L92.3699609,1.11111111 C96.3372584,1.11111111 97.9768613,2.4179646 97.9768613,4.42710526 C97.9768613,7.53984004 94.4810112,7.9502676 92.2382511,7.9502676 L92.2382511,7.99326478 C94.3948459,8.26297432 96.4406568,9.05386173 97.1878332,11.4239181 C97.6777446,12.9600898 98.4667727,14.9718364 99.1277838,15.215487 C99.3222713,15.3522962 99.4909091,15.4200493 99.4909091,15.5125584 C99.4909091,15.5307996 99.3850488,15.5555556 98.6797242,15.5555556 L98.6797242,15.5555556 L98.6797242,15.5555556 Z M91.7680346,1.67268026 L87.7625782,1.67268026 L87.7625782,7.60629022 L91.6215536,7.60629022 C93.9443244,7.60629022 95.1174037,6.0740273 95.1174037,4.56000561 C95.1174037,2.89223645 94.0304897,1.67268026 91.7680346,1.67268026 L91.7680346,1.67268026 L91.7680346,1.67268026 Z" id="Shape"></path>
                    <path d="M107.104318,15.5555556 C102.733258,15.5555556 99.4909091,12.3013655 99.4909091,7.77580155 C99.4909091,3.2515551 102.73206,-5.32907052e-15 107.104318,-5.32907052e-15 C109.910519,-5.32907052e-15 113.303842,1.86819495 113.662106,5.79430281 L102.553527,5.79430281 C102.502004,6.4477758 102.476841,7.03932695 102.476841,7.63614805 C102.476841,12.8942341 104.945148,14.8454307 107.441014,14.8454307 C110.396991,14.8454307 112.582521,12.6122921 113.457212,9.30408515 L114,9.30408515 C113.173237,13.2051608 110.605479,15.5555556 107.104318,15.5555556 L107.104318,15.5555556 L107.104318,15.5555556 Z M106.538764,0.538851717 C104.198665,0.538851717 102.939349,2.82864214 102.658969,5.26203853 L110.42455,5.26203853 C110.423352,2.48873079 109.213162,0.538851717 106.538764,0.538851717 L106.538764,0.538851717 L106.538764,0.538851717 Z" id="Shape"></path>
                </g>
                <g id="Group-4">
                    <polygon id="Shape" fill="#E78337" points="-7.10542736e-15 3.55271368e-15 32 3.55271368e-15 32 32 -7.10542736e-15 32"></polygon>
                    <path d="M5.40349006,16.08126 C5.35703493,16.0643504 5.33333333,16.0305312 5.33333333,15.9985909 C5.33333333,15.9657111 5.35703493,15.9347102 5.40349006,15.9159217 C5.45184132,15.8971333 5.5257903,15.8736477 5.60353154,15.8370103 C6.26433206,15.5457895 6.39611294,15.0197132 6.39611294,14.2052343 L6.39611294,7.19996477 C6.39611294,6.70019229 6.37715166,5.85001541 5.72014339,5.61797819 C5.53527094,5.55033981 5.3684117,5.53249079 5.3684117,5.43103322 C5.3684117,5.36527368 5.4366723,5.33333333 5.68696116,5.33333333 L11.9811572,5.33333333 C14.1180932,5.33333333 15.4008236,5.78143761 15.9971558,6.5423694 C16.5972802,5.78143761 17.8781145,5.33333333 20.0150505,5.33333333 L26.3092466,5.33333333 C26.5614316,5.33333333 26.6296922,5.36527368 26.6296922,5.43103322 C26.6296922,5.53155137 26.4590407,5.55033981 26.2760643,5.61797819 C25.6190561,5.85001541 25.6019909,6.70019229 25.6019909,7.19996477 L25.6019909,14.2052343 C25.6019909,15.0206526 25.7536812,15.5035155 26.3945723,15.8370103 C26.4742097,15.8783449 26.5462626,15.8980727 26.5946138,15.9159217 C26.6429651,15.9347102 26.6666667,15.9657111 26.6666667,15.9985909 C26.6666667,16.0305312 26.6391728,16.0605927 26.5946138,16.08126 C26.5462626,16.0981696 26.478002,16.1254128 26.3945723,16.159232 C25.7337718,16.4504528 25.6019909,16.9755897 25.6019909,17.7947657 L25.6019909,24.7981564 C25.6019909,25.2998077 25.6190561,26.1471663 26.2760643,26.3820218 C26.4590407,26.4487208 26.6296922,26.4646909 26.6296922,26.5642697 C26.6296922,26.6319081 26.5614316,26.6666667 26.3092466,26.6666667 L20.0150505,26.6666667 C17.8781145,26.6666667 16.5972802,26.2166835 15.9971558,25.45857 C15.4008236,26.2166835 14.1180932,26.6666667 11.9811572,26.6666667 L5.68696116,26.6666667 C5.4366723,26.6666667 5.3684117,26.6319081 5.3684117,26.5642697 C5.3684117,26.4646909 5.53527094,26.4477813 5.72014339,26.3820218 C6.37715166,26.1471663 6.39611294,25.3007471 6.39611294,24.7981564 L6.39611294,17.7947657 C6.39611294,16.9746503 6.24442272,16.4927268 5.60353154,16.159232 C5.5257903,16.1207157 5.45373745,16.0981696 5.40349006,16.08126 L5.40349006,16.08126 L5.40349006,16.08126 Z M9.33985127,15.9159217 C9.38251415,15.936589 9.40811187,15.9657111 9.40811187,15.9985909 C9.40811187,16.0305312 9.38251415,16.0605927 9.33605902,16.08126 C9.30098065,16.1019273 9.25073327,16.1207157 9.1710959,16.159232 C8.57855598,16.4542105 8.34533227,16.9755897 8.34533227,17.7947657 L8.34533227,21.4453594 L10.8027138,21.3824181 C11.8455841,21.3514172 12.3973573,21.0216801 12.867597,20.5237865 C13.2657838,20.1066831 13.6023465,19.5279992 13.8137647,18.8581913 C13.952182,18.4016322 14.0213907,17.9507097 14.0213907,17.5307881 C14.0213907,17.417118 14.0081178,17.339146 13.9976891,17.2658711 C13.9199479,16.798039 13.6620745,16.3442981 13.2326015,16.1564138 C13.1548603,16.1254128 13.0865997,16.0981696 13.0363523,16.08126 C12.9917933,16.0643504 12.9680917,16.0305312 12.9680917,15.9985909 C12.9680917,15.9657111 12.9917933,15.9347102 13.0363523,15.9159217 C13.0884958,15.8971333 13.1548603,15.8745872 13.2326015,15.8417074 C13.6620745,15.6528836 13.9199479,15.2000822 13.9976891,14.7284924 C14.0090659,14.6589751 14.0213907,14.5791243 14.0213907,14.4663936 C14.0213907,14.046472 13.9531301,13.5955495 13.8137647,13.1418087 C13.6023465,12.4682431 13.2657838,11.8895592 12.867597,11.4733953 C12.3973573,10.9755016 11.8455841,10.6467039 10.8027138,10.6213396 L8.34533227,10.5527618 L8.34533227,14.2052343 C8.34533227,15.0206526 8.56528309,15.5730327 9.1710959,15.8370103 C9.2497852,15.8717689 9.30098065,15.8971333 9.33985127,15.9159217 L9.33985127,15.9159217 L9.33985127,15.9159217 Z M18.9636477,15.9159217 C19.0044144,15.9347102 19.0319083,15.9657111 19.0319083,15.9985909 C19.0319083,16.0305312 19.0044144,16.0643504 18.9598554,16.08126 C18.9152964,16.0981696 18.8470358,16.1225946 18.7655023,16.1564138 C18.3341333,16.3442981 18.078156,16.7989784 17.9985187,17.2658711 C17.9871419,17.339146 17.9767132,17.417118 17.9767132,17.5307881 C17.9767132,17.9507097 18.0430777,18.4016322 18.1843392,18.8581913 C18.3938613,19.5289386 18.7323201,20.1076225 19.1286108,20.5237865 C19.5988505,21.0216801 20.1525198,21.3514172 21.1934939,21.3824181 L23.6508755,21.4453594 L23.6508755,17.7947657 C23.6508755,16.9746503 23.4337689,16.4250884 22.827008,16.159232 C22.7511629,16.1272917 22.6971232,16.1019273 22.6582526,16.08126 C22.6155897,16.0605927 22.589992,16.0305312 22.589992,15.9985909 C22.589992,15.9657111 22.6155897,15.936589 22.6582526,15.9159217 C22.6971232,15.8971333 22.7511629,15.8745872 22.827008,15.8370103 C23.421444,15.5429712 23.6508755,15.0197132 23.6508755,14.2052343 L23.6508755,10.5527618 L21.1934939,10.6213396 C20.1525198,10.6467039 19.5988505,10.9755016 19.1286108,11.4733953 C18.7323201,11.8895592 18.3938613,12.4682431 18.1843392,13.1418087 C18.0440257,13.5955495 17.9767132,14.046472 17.9767132,14.4663936 C17.9767132,14.5800637 17.9880899,14.6589751 17.9985187,14.7284924 C18.078156,15.1991428 18.3341333,15.6528836 18.7655023,15.8417074 C18.8451397,15.8745872 18.9115042,15.8971333 18.9636477,15.9159217 L18.9636477,15.9159217 L18.9636477,15.9159217 Z M17.8449323,7.88198512 C17.8449323,8.99989725 18.7692946,10.1356584 20.6037982,10.1356584 L23.6499274,10.1356584 L23.6499274,5.74949726 L20.4871863,5.74949726 C18.7038782,5.74949726 17.8449323,6.6494635 17.8449323,7.88198512 L17.8449323,7.88198512 L17.8449323,7.88198512 Z M15.9971558,9.09759713 C15.1657038,10.2108122 13.2326015,10.3864841 11.8806625,10.3864841 L11.8806625,10.4184244 C13.580541,10.6204001 15.1969899,11.2009629 15.7838414,12.9520454 C15.8483098,13.1436875 15.9222588,13.3437844 15.9971558,13.5438813 C16.074897,13.342845 16.1469499,13.1427481 16.2123663,12.9520454 C16.801114,11.2009629 18.4156668,10.6204001 20.1155453,10.4184244 L20.1155453,10.3864841 C18.7655023,10.3864841 16.8324001,10.2098727 15.9971558,9.09759713 L15.9971558,9.09759713 L15.9971558,9.09759713 Z M14.1531716,7.88198512 C14.1531716,6.6494635 13.2961218,5.74949726 11.5109175,5.74949726 L8.34628033,5.74949726 L8.34628033,10.1356584 L11.3943057,10.1356584 C13.2269132,10.1356584 14.1531716,8.99989725 14.1531716,7.88198512 L14.1531716,7.88198512 L14.1531716,7.88198512 Z M14.1531716,24.1133178 C14.1531716,22.9972845 13.2269132,21.8634022 11.3943057,21.8634022 L8.34628033,21.8634022 L8.34628033,26.2486239 L11.5109175,26.2486239 C13.2951738,26.2495633 14.1531716,25.3477182 14.1531716,24.1133178 L14.1531716,24.1133178 L14.1531716,24.1133178 Z M15.9971558,18.452361 C15.9232068,18.6533973 15.8492578,18.8544336 15.7838414,19.0451363 C15.1969899,20.7952794 13.580541,21.3824181 11.8806625,21.5806362 L11.8806625,21.6125765 C13.2326015,21.6125765 15.1657038,21.7882484 15.9971558,22.8995846 C16.8324001,21.787309 18.7655023,21.6125765 20.1155453,21.6125765 L20.1155453,21.5806362 C18.4156668,21.3824181 16.801114,20.7952794 16.2123663,19.0451363 C16.1469499,18.8544336 16.074897,18.6533973 15.9971558,18.452361 L15.9971558,18.452361 L15.9971558,18.452361 Z M17.8449323,24.1133178 C17.8449323,25.3477182 18.7038782,26.2495633 20.4871863,26.2495633 L23.6499274,26.2495633 L23.6499274,21.8643416 L20.6037982,21.8643416 C18.7692946,21.8634022 17.8449323,22.9972845 17.8449323,24.1133178 L17.8449323,24.1133178 L17.8449323,24.1133178 Z" id="Shape" fill="#FFFFFF"></path>
                </g>
            </g>
        </g>
    </g>
</svg>