<?xml version="1.0" encoding="UTF-8" standalone="no"?>
<svg width="24px" height="15px" viewBox="0 0 24 15" version="1.1" xmlns="http://www.w3.org/2000/svg" xmlns:xlink="http://www.w3.org/1999/xlink">
    <!-- Generator: Sketch 3.8.3 (29802) - http://www.bohemiancoding.com/sketch -->
    <title>1466002471_mastercard</title>
    <desc>Created with Sketch.</desc>
    <defs></defs>
    <g id="Cart-Order" stroke="none" stroke-width="1" fill="none" fill-rule="evenodd">
        <g id="Order" transform="translate(-581.000000, -376.000000)">
            <g id="Group-21" transform="translate(581.000000, 376.000000)">
                <g id="1466002471_mastercard">
                    <g id="Layer_1">
                        <g id="Group">
                            <g transform="translate(0.292398, 0.746589)" id="Shape">
                                <path d="M11.7658947,12.2900897 C13.0019337,13.4290292 14.6620117,14.1197505 16.4674932,14.1197505 C20.3447563,14.1197505 23.4832125,10.9572788 23.4832125,7.06751657 C23.4832125,3.16596491 20.3447563,0.00343859649 16.4674932,0.00343859649 C14.6620117,0.00343859649 13.0019883,0.694050682 11.7658947,1.83309942 C10.3483197,3.12950487 9.45161014,4.99568031 9.45161014,7.06751657 C9.45161014,9.13957115 10.3483743,11.0058012 11.7658947,12.2900897 L11.7658947,12.2900897 L11.7658947,12.2900897 Z" fill="#FAB31E"></path>
                                <path d="M14.0319844,6.31637427 C14.0077505,6.06191813 13.9593372,5.81957895 13.9106511,5.56512281 L9.62135673,5.56512281 C9.66982456,5.31066667 9.74236257,5.0682729 9.81506433,4.82593372 L13.7048265,4.82593372 C13.6197895,4.57164133 13.5229084,4.31707602 13.4138012,4.07473684 L10.1180975,4.07473684 C10.2392671,3.82044444 10.372499,3.56587914 10.5179571,3.32353996 L13.0019337,3.32353996 C12.8443587,3.06908382 12.6627135,2.8145731 12.4687329,2.58440546 L11.0509942,2.58440546 C11.2690994,2.31788694 11.5115478,2.0634308 11.7658402,1.83320858 C10.5179571,0.706276803 8.86994152,0.00354775828 7.05245224,0.00354775828 C3.18719688,0.00354775828 0.0367329435,3.16607407 0.0367329435,7.06762573 C0.0367329435,10.9573879 3.18719688,14.1198596 7.05245224,14.1198596 C8.8699961,14.1198596 10.5179571,13.4291384 11.7658402,12.2901988 L11.7658402,12.2901988 L11.7658402,12.2901988 C12.02046,12.0598129 12.2506277,11.8175283 12.4687329,11.5509552 L11.0509942,11.5509552 C10.8571228,11.3086706 10.6874854,11.0663314 10.5179025,10.7997583 L13.0018791,10.7997583 C13.159345,10.5574737 13.2926316,10.3151345 13.4137466,10.0485068 L10.1180429,10.0485068 C10.0088265,9.80622222 9.89993762,9.56382846 9.81500975,9.30926316 L13.7047719,9.30926316 C13.7895361,9.06697856 13.8500117,8.812577 13.9105965,8.55806628 C13.9592827,8.31578168 14.0076413,8.06116179 14.0319298,7.80681481 C14.0561092,7.56447563 14.0682807,7.32219103 14.0682807,7.06757115 C14.0683353,6.81322417 14.0561637,6.55871345 14.0319844,6.31637427 L14.0319844,6.31637427 L14.0319844,6.31637427 Z" fill="#E40520"></path>
                                <path d="M22.5500975,8.72317892 C22.5500975,8.57861988 22.658097,8.47335673 22.7933703,8.47335673 C22.9419153,8.47335673 23.0500975,8.57856061 23.0500975,8.72317892 C23.0500975,8.85475786 22.9419762,8.97335673 22.7933703,8.97335673 C22.6581579,8.97335673 22.5500975,8.85475786 22.5500975,8.72317892 L22.5500975,8.72317892 L22.5500975,8.72317892 Z M22.7933703,8.90733017 C22.9014307,8.90733017 22.9960368,8.82844207 22.9960368,8.72317892 C22.9960368,8.61785649 22.9014307,8.53890912 22.7933703,8.53890912 C22.6987642,8.53890912 22.6041581,8.61785649 22.6041581,8.72317892 C22.6041581,8.82844207 22.6988251,8.90733017 22.7933703,8.90733017 L22.7933703,8.90733017 L22.7933703,8.90733017 Z M22.76634,8.82844207 L22.7122794,8.82844207 L22.7122794,8.61779722 L22.8068855,8.61779722 L22.8609461,8.61779722 C22.8879764,8.63119219 22.8879764,8.65750798 22.8879764,8.6837645 C22.8879764,8.69686313 22.8745222,8.72311965 22.847431,8.73645535 L22.9014916,8.82844207 L22.8339767,8.82844207 L22.8069464,8.74949471 L22.7664009,8.74949471 L22.7664009,8.82844207 L22.7664009,8.71013956 L22.7934312,8.71013956 C22.8069464,8.71013956 22.8205833,8.71013956 22.8205833,8.69686313 C22.8339767,8.69686313 22.8339767,8.6837645 22.8339767,8.67060661 C22.8339767,8.67060661 22.8339767,8.65750798 22.8205833,8.65750798 C22.8205833,8.64411301 22.8068855,8.65750798 22.7934312,8.65750798 L22.7664009,8.65750798 L22.7664009,8.71013956 L22.7664009,8.82844207 L22.76634,8.82844207 L22.76634,8.82844207 Z" fill="#FFFFFF"></path>
                                <path d="M9.37890838,9.10332943 C9.14879532,9.16380507 8.97915789,9.20021053 8.80952047,9.20021053 C8.44590253,9.20021053 8.22779727,8.96987914 8.22779727,8.55795712 C8.22779727,8.47330214 8.23991423,8.38831969 8.25203119,8.29138402 L8.30049903,8.0125848 L8.33690448,7.78252632 L8.66406238,5.79529045 L9.3911345,5.79529045 L9.30615205,6.23150097 L9.76670565,6.23150097 L9.65765302,6.9585731 L9.19726316,6.9585731 L9.00339181,8.14598051 C8.99111111,8.20672904 8.99111111,8.2428616 8.99111111,8.2671501 C8.99111111,8.42488889 9.06381287,8.48525536 9.24573099,8.48525536 C9.33038596,8.48525536 9.40308772,8.47330214 9.47578947,8.46102144 L9.37890838,9.10332943 L9.37890838,9.10332943 L9.37890838,9.10332943 Z" fill="#06326E"></path>
                                <path d="M11.7297076,9.0791501 C11.4631891,9.15185185 11.2209045,9.18809357 10.9541131,9.18809357 C10.1302144,9.18809357 9.6577076,8.75188304 9.6577076,7.89146979 C9.6577076,6.88592593 10.2150877,6.1588538 10.9904639,6.1588538 C11.6085926,6.1588538 12.0083431,6.57093957 12.0083431,7.21297466 C12.0083431,7.43102534 11.9841637,7.63717739 11.9235789,7.92792982 L10.4089045,7.92792982 C10.3966784,7.97645224 10.3966784,8.00068616 10.3966784,8.0248655 C10.3966784,8.36414035 10.6269552,8.53366862 11.0631657,8.53366862 C11.3419103,8.53366862 11.5842495,8.47335673 11.8508226,8.35213255 L11.7297076,9.0791501 L11.7297076,9.0791501 L11.7297076,9.0791501 Z M11.281271,7.34637037 L11.281271,7.20096686 C11.281271,6.95868226 11.1482027,6.82528655 10.9178168,6.82528655 C10.6755322,6.82528655 10.5057856,7.0071501 10.433193,7.34637037 L11.281271,7.34637037 L11.281271,7.34637037 L11.281271,7.34637037 Z" fill="#06326E"></path>
                                <polygon fill="#06326E" points="3.56282261 9.13957115 2.81157115 9.13957115 3.24778168 6.38902144 2.26630799 9.13957115 1.74527875 9.13957115 1.68463938 6.40124756 1.22424951 9.13957115 0.48511501 9.13957115 1.078846 5.56512281 2.18154386 5.56512281 2.2057232 7.77030019 2.94480312 5.56512281 4.15649903 5.56512281"></polygon>
                                <path d="M5.39253801,7.84294737 C5.31978168,7.83099415 5.29560234,7.83099415 5.2471345,7.83099415 C4.81081481,7.83099415 4.59276413,8.00063158 4.59276413,8.2671501 C4.59276413,8.44906823 4.70181676,8.57023782 4.87145419,8.57023782 C5.23496296,8.5702924 5.38042105,8.26720468 5.39253801,7.84294737 L5.39253801,7.84294737 L5.39253801,7.84294737 Z M5.99833138,9.13957115 L5.34407018,9.13957115 L5.35618713,8.83675634 C5.18649513,9.0668694 4.9562729,9.18809357 4.55646784,9.18809357 C4.19290448,9.18809357 3.87786355,8.86109942 3.87786355,8.38837427 C3.87786355,8.25530604 3.90220663,8.13413645 3.93839376,8.01263938 C4.05956335,7.56442105 4.50794542,7.28573099 5.19866667,7.2737232 C5.28337622,7.2737232 5.41666277,7.2737232 5.53788694,7.28573099 C5.56212086,7.18879532 5.56212086,7.15255361 5.56212086,7.09180507 C5.56212086,6.89793372 5.40460039,6.83756725 5.053154,6.83756725 C4.83504873,6.83756725 4.59270955,6.87369981 4.42307212,6.93444834 L4.31412865,6.95862768 L4.26566082,6.97063548 L4.37465887,6.31637427 C4.72605068,6.20748538 4.9805614,6.1588538 5.25925146,6.1588538 C5.91351267,6.1588538 6.26490448,6.46177778 6.26490448,7.01910331 C6.26490448,7.16450682 6.27702144,7.2737232 6.22855361,7.58870955 L6.05891618,8.63071345 L6.03468226,8.812577 L6.0225653,8.95803509 L6.01044834,9.05491618 L5.99833138,9.13957115 L5.99833138,9.13957115 L5.99833138,9.13957115 Z" fill="#06326E"></path>
                                <path d="M15.3889747,6.25589864 C15.6070253,6.25589864 15.8009513,6.31637427 16.0674152,6.44976998 L16.2008109,5.67417544 C16.1281637,5.63782456 16.1038752,5.63782456 16.006885,5.60152827 L15.7039064,5.51665497 C15.6070253,5.49242105 15.4859103,5.48030409 15.3525146,5.48030409 C14.9769435,5.48030409 14.7588928,5.49242105 14.5286706,5.62576218 C14.407501,5.7105809 14.2499805,5.81957895 14.0803431,6.01350487 L13.9834074,5.98927096 L13.2078674,6.53447953 L13.2442183,6.23161014 L12.4445536,6.23161014 L11.9720468,9.13962573 L12.7353606,9.13962573 L13.0139961,7.57648343 C13.0139961,7.57648343 13.1230487,7.35837817 13.1715166,7.28573099 C13.3168655,7.10408577 13.4380351,7.10408577 13.5956647,7.10408577 L13.6563041,7.10408577 C13.6319064,7.2737232 13.6197895,7.45531384 13.6197895,7.66146589 C13.6197895,8.60642495 14.1530448,9.20026511 14.9769435,9.20026511 C15.1829318,9.20026511 15.3646862,9.17608577 15.6433762,9.10338402 L15.7766082,8.27948538 C15.534269,8.41260819 15.3161092,8.47341131 15.1344094,8.47341131 C14.6861365,8.47341131 14.4196179,8.13413645 14.4196179,7.60071735 C14.4197271,6.81322417 14.8195322,6.25589864 15.3889747,6.25589864 L15.3889747,6.25589864 L15.3889747,6.25589864 Z" fill="#06326E"></path>
                                <path d="M21.8231345,5.56512281 L21.6535517,6.58289279 C21.4717427,6.30436647 21.2537466,6.17091618 20.9629396,6.17091618 C20.5629162,6.17091618 20.187345,6.40124756 19.9571228,6.83751267 L19.9571228,6.82523197 L19.4724444,6.53437037 L19.5209123,6.23150097 L18.7091306,6.23150097 L18.2486862,9.13951657 L18.9999922,9.13951657 L19.2543392,7.57637427 C19.2543392,7.57637427 19.4482105,7.35826901 19.4966784,7.28562183 C19.617848,7.1402729 19.7390175,7.11592982 19.8359532,7.10397661 C19.7511345,7.34626121 19.7027212,7.63717739 19.7027212,7.96411696 C19.7027212,8.69135283 20.078347,9.17597661 20.6357817,9.17597661 C20.9144717,9.17597661 21.132577,9.07909552 21.3385107,8.84870955 L21.3022144,9.13951657 L22.0170604,9.13951657 L22.5986199,5.56506823 L21.8231345,5.56506823 L21.8231345,5.56512281 L21.8231345,5.56512281 Z M20.8902378,8.44912281 C20.6357271,8.44912281 20.5024405,8.25525146 20.5024405,7.87946199 C20.5024405,7.30985575 20.744616,6.89793372 21.096117,6.89793372 C21.3627992,6.89793372 21.4960312,7.10403119 21.4960312,7.46759454 C21.4960312,8.049154 21.253692,8.44912281 20.8902378,8.44912281 L20.8902378,8.44912281 L20.8902378,8.44912281 Z" fill="#06326E"></path>
                                <path d="M17.3883275,7.84294737 C17.3155712,7.83099415 17.2913372,7.83099415 17.242924,7.83099415 C16.8067135,7.83099415 16.5886082,8.00063158 16.5886082,8.2671501 C16.5886082,8.44906823 16.6977154,8.57023782 16.8672982,8.57023782 C17.2307524,8.5702924 17.3762105,8.26720468 17.3883275,7.84294737 L17.3883275,7.84294737 L17.3883275,7.84294737 Z M17.9941209,9.13957115 L17.3276881,9.13957115 L17.3519766,8.83675634 C17.1823392,9.0668694 16.952117,9.18809357 16.5523119,9.18809357 C16.1766862,9.18809357 15.8494191,8.87305263 15.8494191,8.38837427 C15.8494191,7.69765302 16.3705575,7.2737232 17.1944561,7.2737232 C17.2792749,7.2737232 17.4125614,7.2737232 17.521614,7.28573099 C17.5457934,7.18879532 17.5579649,7.15255361 17.5579649,7.09180507 C17.5579649,6.89793372 17.400499,6.83756725 17.0369357,6.83756725 C16.8310019,6.83756725 16.5764912,6.87369981 16.406963,6.93444834 L16.3100273,6.95862768 L16.2614503,6.97063548 L16.3705575,6.31637427 C16.7219493,6.20748538 16.9763509,6.1588538 17.2550409,6.1588538 C17.9093021,6.1588538 18.2486862,6.46177778 18.2486862,7.01910331 C18.2486862,7.16450682 18.2727563,7.2737232 18.2122261,7.58870955 L18.0546511,8.63071345 L18.0304717,8.812577 L18.0062378,8.95803509 L17.9941209,9.05491618 L17.9941209,9.13957115 L17.9941209,9.13957115 L17.9941209,9.13957115 Z" fill="#06326E"></path>
                                <path d="M7.58565302,6.84946589 C7.73105653,6.84946589 7.93704483,6.86174659 8.1551501,6.89793372 L8.26420273,6.2194386 C8.04609747,6.19525926 7.75523587,6.1588538 7.58565302,6.1588538 C6.73746589,6.1588538 6.45872125,6.61940741 6.45872125,7.15249903 C6.45872125,7.50383626 6.61635088,7.75834698 7.0282729,7.95221832 C7.3311423,8.09756725 7.37966472,8.12180117 7.37966472,8.25525146 C7.37966472,8.43689669 7.22214425,8.54605848 6.93133723,8.54605848 C6.70111501,8.54605848 6.48306433,8.50954386 6.24067057,8.42488889 L6.15585185,9.09110331 L6.16796881,9.10332943 L6.31337232,9.12756335 C6.36178558,9.13957115 6.42253411,9.15179727 6.50729825,9.16380507 C6.68905263,9.17603119 6.8465731,9.18803899 6.94345419,9.18803899 C7.79169591,9.18803899 8.14308772,8.86104483 8.14308772,8.21868226 C8.14308772,7.81865887 7.94916179,7.57637427 7.57353606,7.40673684 C7.24637817,7.26138791 7.21002729,7.237154 7.21002729,7.10397661 C7.21002729,6.97063548 7.3554308,6.84946589 7.58565302,6.84946589 L7.58565302,6.84946589 L7.58565302,6.84946589 Z" fill="#06326E"></path>
                                <path d="M16.406963,5.4440078 L16.2736218,6.2194386 C16.0069396,6.08620663 15.8130682,6.02556725 15.594963,6.02556725 C15.0255205,6.02556725 14.6256062,6.58294737 14.6256062,7.37065887 C14.6256062,7.91575828 14.8922339,8.24297076 15.3405068,8.24297076 C15.5222612,8.24297076 15.7403665,8.18260429 15.9827057,8.06110721 L15.8494737,8.87305263 C15.5707836,8.94575439 15.3890292,8.98221442 15.1830955,8.98221442 C14.3591423,8.98221442 13.8501754,8.38837427 13.8501754,7.43107992 C13.8501754,6.1588538 14.5530136,5.26230799 15.5586667,5.26230799 C15.6918986,5.26230799 15.8131228,5.27442495 15.9101676,5.29865887 L16.213037,5.37136062 C16.3099727,5.40765692 16.3340975,5.41977388 16.406963,5.4440078 L16.406963,5.4440078 L16.406963,5.4440078 Z" fill="#FFFFFF"></path>
                                <path d="M13.9593372,5.97709942 L13.8865809,5.97709942 C13.631961,5.97709942 13.4866667,6.09826901 13.2563899,6.44976998 L13.329037,6.00133333 L12.6385341,6.00133333 L12.1659727,8.90951267 L12.929232,8.90951267 C13.207922,7.12826511 13.2806238,6.82523197 13.6441326,6.82523197 L13.6926004,6.82523197 C13.7653021,6.47394932 13.8622378,6.21938402 13.9835166,5.98916179 L13.9593372,5.97709942 L13.9593372,5.97709942 L13.9593372,5.97709942 Z" fill="#FFFFFF"></path>
                                <path d="M9.57277973,8.87299805 C9.36695517,8.94569981 9.19737232,8.96987914 9.02768031,8.96987914 C8.63988304,8.96987914 8.4217232,8.75182846 8.4217232,8.32789864 C8.4217232,8.25519688 8.43384016,8.1579883 8.44595712,8.07333333 L8.49447953,7.78252632 L8.53077583,7.55214035 L8.85809747,5.56506823 L9.60929435,5.56506823 L9.52431189,6.00127875 L9.91205458,6.00127875 L9.81517349,6.7162885 L9.4274308,6.7162885 L9.22160624,7.92787524 C9.20938012,7.97639766 9.20938012,8.0125848 9.20938012,8.04909942 C9.20938012,8.19450292 9.28208187,8.25519688 9.46394542,8.25519688 C9.54860039,8.25519688 9.62146589,8.25519688 9.66993372,8.23096296 L9.57277973,8.87299805 L9.57277973,8.87299805 L9.57277973,8.87299805 Z" fill="#FFFFFF"></path>
                                <path d="M6.65270175,6.92216764 C6.65270175,7.28567641 6.8222846,7.54018713 7.22214425,7.73411306 C7.53723977,7.87946199 7.5857076,7.92792982 7.5857076,8.04909942 C7.5857076,8.23096296 7.45247563,8.31567251 7.14949708,8.31567251 C6.91927485,8.31567251 6.71328655,8.2794308 6.47094737,8.20678363 L6.36178558,8.87299805 L6.39819103,8.88527875 L6.53153216,8.90951267 C6.57994542,8.92146589 6.6405848,8.93374659 6.73752047,8.93374659 C6.90715789,8.95792593 7.05250682,8.95792593 7.14949708,8.95792593 C7.94921637,8.95792593 8.32484211,8.65494737 8.32484211,7.9885692 C8.32484211,7.58860039 8.16732164,7.35826901 7.79169591,7.17667836 C7.46453801,7.03132943 7.42813255,6.99476023 7.42813255,6.86169201 C7.42813255,6.70406238 7.56147368,6.63130604 7.80381287,6.63130604 C7.94916179,6.63130604 8.15520468,6.64358674 8.34902144,6.66782066 L8.45807407,6.00127875 C8.26420273,5.96492788 7.96133333,5.94063938 7.79169591,5.94063938 C6.94345419,5.94069396 6.6405848,6.38902144 6.65270175,6.92216764 L6.65270175,6.92216764 L6.65270175,6.92216764 Z" fill="#FFFFFF"></path>
                                <path d="M22.2108772,8.90951267 L21.4960312,8.90951267 L21.5323275,8.63065887 C21.3263938,8.84876413 21.1082339,8.94569981 20.8295984,8.94569981 C20.2720546,8.94569981 19.9086004,8.47335673 19.9086004,7.74606628 C19.9086004,6.77681871 20.478152,5.9528655 21.1446394,5.9528655 C21.4475634,5.9528655 21.6656686,6.08615205 21.8716023,6.35283431 L22.0412398,5.33479142 L22.7926004,5.33479142 L22.2108772,8.90951267 L22.2108772,8.90951267 L22.2108772,8.90951267 Z M21.096117,8.23101754 C21.4475088,8.23101754 21.6899025,7.81871345 21.6899025,7.24954386 C21.6899025,6.87369981 21.5565614,6.67988304 21.2900975,6.67988304 C20.950768,6.67988304 20.6962027,7.07979727 20.6962027,7.64918519 C20.6962027,8.03709162 20.8295984,8.23101754 21.096117,8.23101754 L21.096117,8.23101754 L21.096117,8.23101754 Z" fill="#FFFFFF"></path>
                                <path d="M11.899345,8.84876413 C11.6328265,8.93380117 11.3905419,8.96993372 11.1116335,8.96993372 C10.2635556,8.96993372 9.82734503,8.52176998 9.82734503,7.66141131 C9.82734503,6.66787524 10.3846706,5.928577 11.1482027,5.928577 C11.7781754,5.928577 12.1780351,6.34055361 12.1780351,6.98280702 C12.1780351,7.20091228 12.1537466,7.40679142 12.0810994,7.70987914 L10.5785419,7.70987914 C10.566425,7.7460117 10.566425,7.77024561 10.566425,7.79447953 C10.566425,8.13408187 10.7966472,8.30366472 11.2328577,8.30366472 C11.5116023,8.30366472 11.7539415,8.25519688 12.0205692,8.12180117 L11.899345,8.84876413 L11.899345,8.84876413 L11.899345,8.84876413 Z M11.4751423,7.11598441 L11.4751423,6.97063548 C11.4751423,6.7282963 11.3420195,6.59506433 11.1116335,6.59506433 C10.8693489,6.59506433 10.6997115,6.77687329 10.6270097,7.11598441 L11.4751423,7.11598441 L11.4751423,7.11598441 L11.4751423,7.11598441 Z" fill="#FFFFFF"></path>
                                <polygon fill="#FFFFFF" points="3.75669396 8.90951267 3.00549708 8.90951267 3.44165302 6.1588538 2.46017934 8.90951267 1.93909552 8.90951267 1.8785653 6.18303314 1.41806628 8.90951267 0.715337232 8.90951267 1.30906823 5.33479142 2.39959454 5.33479142 2.43594542 7.55219493 3.16290838 5.33479142 4.35042495 5.33479142"></polygon>
                                <path d="M5.63482261,7.61294347 C5.56212086,7.61294347 5.52576998,7.60060819 5.46523977,7.60060819 C5.04109162,7.60060819 4.82298635,7.7582924 4.82298635,8.04909942 C4.82298635,8.23096296 4.91992203,8.33990643 5.08955945,8.33990643 C5.40465497,8.33996101 5.62276023,8.049154 5.63482261,7.61294347 L5.63482261,7.61294347 L5.63482261,7.61294347 Z M6.19220273,8.90951267 L5.56212086,8.90951267 L5.57423782,8.60637037 C5.38036647,8.84870955 5.12585575,8.95792593 4.77451852,8.95792593 C4.36259649,8.95792593 4.08390643,8.64293957 4.08390643,8.17015984 C4.08390643,7.4551501 4.56853021,7.04328265 5.41666277,7.04328265 C5.50148148,7.04328265 5.61064327,7.05550877 5.73175828,7.06746199 C5.7559922,6.9705809 5.7559922,6.93439376 5.7559922,6.88587135 C5.7559922,6.69205458 5.62276023,6.61935283 5.27131384,6.61935283 C5.05320858,6.61935283 4.8108694,6.64358674 4.64128655,6.69205458 L4.53223392,6.72824172 L4.45953216,6.74046784 L4.5685848,6.08615205 C4.94415595,5.97704483 5.19872125,5.94063938 5.47735673,5.94063938 C6.13161793,5.94063938 6.48306433,6.23150097 6.48306433,6.78893567 C6.48306433,6.93433918 6.47094737,7.04322807 6.42253411,7.37049513 L6.25278752,8.40054581 L6.22855361,8.58213645 L6.21643665,8.72753996 L6.20437427,8.83664717 L6.19220273,8.90951267 L6.19220273,8.90951267 L6.19220273,8.90951267 Z" fill="#FFFFFF"></path>
                                <path d="M17.6306667,7.61294347 C17.5457934,7.61294347 17.5094971,7.60060819 17.4610292,7.60060819 C17.0248733,7.60060819 16.806768,7.7582924 16.806768,8.04909942 C16.806768,8.23096296 16.9158207,8.33990643 17.0854581,8.33990643 C17.3883275,8.33996101 17.6185497,8.049154 17.6306667,7.61294347 L17.6306667,7.61294347 L17.6306667,7.61294347 Z M18.1879376,8.90951267 L17.5579103,8.90951267 L17.5700273,8.60637037 C17.3762105,8.84870955 17.1217544,8.95792593 16.7704172,8.95792593 C16.3584405,8.95792593 16.0798051,8.64293957 16.0798051,8.17015984 C16.0798051,7.4551501 16.5644288,7.04328265 17.4125614,7.04328265 C17.4973801,7.04328265 17.6064327,7.05550877 17.71554,7.06746199 C17.7397193,6.9705809 17.7518363,6.93439376 17.7518363,6.88587135 C17.7518363,6.69205458 17.6186043,6.61935283 17.2671579,6.61935283 C17.0491072,6.61935283 16.7947057,6.64358674 16.6249591,6.69205458 L16.528078,6.72824172 L16.4553762,6.74046784 L16.5644288,6.08615205 C16.9400546,5.97704483 17.1944561,5.94063938 17.4730916,5.94063938 C18.1274074,5.94063938 18.4667914,6.23150097 18.4667914,6.78893567 C18.4667914,6.93433918 18.4667914,7.04322807 18.4060429,7.37049513 L18.2486862,8.40054581 L18.2243431,8.58213645 L18.2001637,8.72753996 L18.1879922,8.83664717 L18.1879922,8.90951267 L18.1879376,8.90951267 L18.1879376,8.90951267 Z" fill="#FFFFFF"></path>
                                <path d="M20.2236413,5.97709942 L20.1509396,5.97709942 C19.8964834,5.97709942 19.7511345,6.09826901 19.5208577,6.44976998 L19.5935049,6.00133333 L18.9030019,6.00133333 L18.4424483,8.90951267 L19.1937544,8.90951267 C19.4724444,7.12826511 19.5451462,6.82523197 19.908655,6.82523197 L19.9571774,6.82523197 C20.0298246,6.47394932 20.1267602,6.21938402 20.2479298,5.98916179 L20.2236413,5.97709942 L20.2236413,5.97709942 L20.2236413,5.97709942 Z" fill="#FFFFFF"></path>
                            </g>
                        </g>
                    </g>
                </g>
            </g>
        </g>
    </g>
</svg>