<?xml version="1.0" encoding="UTF-8" standalone="no"?>
<svg width="24px" height="8px" viewBox="0 0 24 8" version="1.1" xmlns="http://www.w3.org/2000/svg" xmlns:xlink="http://www.w3.org/1999/xlink">
    <!-- Generator: Sketch 3.8.3 (29802) - http://www.bohemiancoding.com/sketch -->
    <title>1466002470_visa</title>
    <desc>Created with Sketch.</desc>
    <defs></defs>
    <g id="Cart-Order" stroke="none" stroke-width="1" fill="none" fill-rule="evenodd">
        <g id="Order" transform="translate(-614.000000, -380.000000)">
            <g id="Group-21" transform="translate(581.000000, 376.000000)">
                <g id="1466002470_visa" transform="translate(33.000000, 4.000000)">
                    <g id="Layer_1">
                        <g id="Group">
                            <g transform="translate(0.183236, 0.076023)" id="Shape">
                                <polygon fill="#005098" points="8.23516569 7.10119298 9.41678752 0.16494347 11.3081793 0.16494347 10.1244288 7.10119298"></polygon>
                                <path d="M16.9823548,0.335781676 C16.6079298,0.195126706 16.0208031,0.044374269 15.2876725,0.044374269 C13.4195867,0.044374269 12.1036413,0.985021442 12.0920156,2.33349708 C12.0814815,3.32992593 13.0313528,3.88637817 13.7486004,4.2180117 C14.4848421,4.55810526 14.7323119,4.77495517 14.7292008,5.07858869 C14.7239064,5.54350877 14.1410916,5.75555556 13.5973567,5.75555556 C12.8410292,5.75555556 12.4390409,5.6508694 11.8180741,5.39166472 L11.5747524,5.28162963 L11.309271,6.8345653 C11.7503938,7.02810916 12.5669786,7.19578168 13.415384,7.20418713 C15.4030565,7.20418713 16.6925302,6.27440156 16.7073216,4.83412086 C16.7147446,4.04559064 16.2112359,3.44525536 15.1206004,2.94987914 C14.459462,2.62883431 14.0543626,2.41487719 14.0585653,2.08984795 C14.0585653,1.80160624 14.4012788,1.49327875 15.1417778,1.49327875 C15.7595244,1.48350877 16.2080702,1.61837817 16.556078,1.75903314 L16.726425,1.83915789 L16.9823548,0.335781676 L16.9823548,0.335781676 L16.9823548,0.335781676 Z" fill="#005098"></path>
                                <path d="M21.8303938,0.171602339 L20.3694815,0.171602339 C19.9167329,0.171602339 19.5782768,0.295064327 19.379384,0.746775828 L16.5718519,7.10381287 L18.5573957,7.10381287 C18.5573957,7.10381287 18.881115,6.24907602 18.9551267,6.06131774 C19.1720312,6.06131774 21.1004288,6.06453801 21.376499,6.06453801 C21.4325536,6.30725926 21.6060663,7.10381287 21.6060663,7.10381287 L23.3609513,7.10381287 L21.8303938,0.171602339 L21.8303938,0.171602339 L21.8303938,0.171602339 Z M19.4989162,4.64276023 C19.6554542,4.24290058 20.2521326,2.70350097 20.2521326,2.70350097 C20.2415439,2.7220039 20.4076335,2.30178558 20.5028226,2.04132554 L20.6308694,2.63947758 C20.6308694,2.63947758 20.9926316,4.29524366 21.0687173,4.64276023 L19.4989162,4.64276023 L19.4989162,4.64276023 L19.4989162,4.64276023 Z" fill="#005098"></path>
                                <path d="M6.64948148,0.169964912 L4.79826121,4.90032749 L4.60046004,3.93932164 C4.25665497,2.83067446 3.18293957,1.63005848 1.98232359,1.02923197 L3.67482261,7.09584405 L5.67515789,7.09322417 L8.65189084,0.169964912 L6.64948148,0.169964912 L6.64948148,0.169964912 L6.64948148,0.169964912 Z" fill="#005098"></path>
                                <path d="M3.0814191,0.165762183 L0.031711501,0.165762183 L0.00846003899,0.309910331 C2.38010916,0.884265107 3.94991033,2.27187524 4.60051462,3.93932164 L3.9382846,0.751251462 C3.82404678,0.311984405 3.49186745,0.181099415 3.0814191,0.165762183 L3.0814191,0.165762183 L3.0814191,0.165762183 Z" fill="#F6A500"></path>
                            </g>
                        </g>
                    </g>
                </g>
            </g>
        </g>
    </g>
</svg>